<mxfile host="app.diagrams.net" modified="2023-10-13T12:34:45.780Z" agent="Mozilla/5.0 (X11; Linux x86_64) AppleWebKit/537.36 (KHTML, like Gecko) Chrome/117.0.0.0 Safari/537.36" version="22.0.4" etag="Co1SEZBhiJc4bE0EUQUa" type="github">
  <diagram name="Страница — 1" id="oyt1punC4fpAUDzVChK5">
    <mxGraphModel>
      <root>
        <mxCell id="0" />
        <mxCell id="1" parent="0" />
      </root>
    </mxGraphModel>
  </diagram>
</mxfile>
